<?xml version="1.0" encoding="utf-8"?>
<svg version="1.1" id="Layer_1" xmlns="http://www.w3.org/2000/svg" xmlns:xlink="http://www.w3.org/1999/xlink" x="0px" y="0px"
	 viewBox="0 0 4000 4000" style="enable-background:new 0 0 4000 4000;" xml:space="preserve">
<g>
	<rect style="fill-rule:evenodd;clip-rule:evenodd;fill:#FFFFFF;" width="4000" height="4000" fill-opacity='0'/>
	<path style="fill-rule:evenodd;clip-rule:evenodd;" d="M1516.653,1965.614h-350.636l-235.455-407.812h350.637L1516.653,1965.614z
		 M1507.601,1557.803l-113.202-196.063h-226.398H817.365H590.961l113.202,196.063l235.447,407.812l113.202,196.067h226.398h350.645
		h226.398l-113.197-196.067L1507.601,1557.803z"/>
	<path style="fill-rule:evenodd;clip-rule:evenodd;" d="M2483.342,1965.614h350.637l235.455-407.812h-350.637L2483.342,1965.614z
		 M2492.394,1557.803l113.202-196.063h226.398h350.637h226.403l-113.202,196.063l-235.447,407.812l-113.202,196.067h-226.398
		H2370.14h-226.398l113.197-196.067L2492.394,1557.803z"/>
	<path style="fill-rule:evenodd;clip-rule:evenodd;" d="M1999.998,1769.556l-122.253-211.753l-113.207-196.063l235.46-407.825
		l235.46,407.825l-113.207,196.063L1999.998,1769.556z M1886.796,1965.614l113.202,196.067l113.202-196.067l235.455-407.812h0.005
		l113.197-196.063l-113.202-196.077L1999.998,561.78l-348.657,603.883l-113.202,196.077l113.197,196.063h0.005L1886.796,1965.614z"
		/>
	<path style="fill-rule:evenodd;clip-rule:evenodd;" d="M1651.341,1557.803v-0.01V1557.803z"/>
	<path style="fill-rule:evenodd;clip-rule:evenodd;" d="M2348.654,1557.803v-0.01V1557.803z"/>
	<polygon style="fill-rule:evenodd;clip-rule:evenodd;" points="1999.998,2326.379 2048.659,2326.379 2275.052,2326.379 
		2625.694,2326.379 2852.097,2326.379 2738.896,2522.446 2512.497,2522.446 2161.861,2522.446 1999.998,2522.446 1838.134,2522.446 
		1487.499,2522.446 1261.099,2522.446 1147.9,2326.379 1374.301,2326.379 1724.943,2326.379 1951.336,2326.379 	"/>
	<path style="fill-rule:evenodd;clip-rule:evenodd;" d="M2612.072,2742.107l-113.201,196.073c-492.6,0-505.138,0-997.738,0
		l-113.202-196.073C1955.994,2742.107,2044.006,2742.107,2612.072,2742.107"/>
	<path style="fill-rule:evenodd;clip-rule:evenodd;" d="M2337.226,3242.139l-113.202,196.073c-492.6,0,58.398,0-434.201,0
		l-113.202-196.073C2244.689,3242.139,1769.157,3242.139,2337.226,3242.139"/>
	<path style="fill-rule:evenodd;clip-rule:evenodd;" d="M1976.981,3370.245h-226.395c-211.95-367.095-277.54-480.693-489.482-847.8
		l113.197-196.067C1623.983,2758.842,1727.291,2937.787,1976.981,3370.245" />
	<polygon style="fill-rule:evenodd;clip-rule:evenodd;" points="1999.998,1965.614 2048.659,1965.614 2275.052,1965.614 
		2625.694,1965.614 2852.097,1965.614 2738.896,2161.681 2512.497,2161.681 2161.861,2161.681 1999.998,2161.681 1838.134,2161.681 
		1487.499,2161.681 1261.099,2161.681 1147.9,1965.614 1374.301,1965.614 1724.943,1965.614 1951.336,1965.614 	"/>
</g>
</svg>
